<svg width="35" height="35" viewBox="0 0 35 35" fill="none" xmlns="http://www.w3.org/2000/svg">
<path d="M14.3949 0.0963305L26.099 7.29139L25.1707 8.33032L14.0612 1.4998L1.31329 9.34191V25.0307C5.56117 27.6417 9.81333 30.2573 14.0612 32.8683L26.8134 25.0261V13.6024L16.0675 26.2565L8.18348 14.6915L16.0675 19.2847L34.3681 4.70773L28.1224 12.0623V25.4271C28.1224 25.7051 27.9727 25.942 27.7545 26.056L14.3906 34.2763C14.1767 34.4039 13.9243 34.3948 13.7275 34.2717C9.26149 31.524 4.79972 28.7763 0.33367 26.0286C0.124057 25.901 0.00427783 25.6686 0.00427783 25.4271L0 8.94092C0 8.66296 0.154002 8.42601 0.372171 8.3121L13.7361 0.0917738C13.9457 -0.0358143 14.1981 -0.0267009 14.3949 0.0963305Z" fill="#42454A"/>
</svg>
